PathFileType	4	(X/Y/Z)	C:/Users/beibeiliu/ov580/test_trc/User1\sequence.23_training_dense_left.trc
DataRate	CameraRate	NumFrames	NumMarkers	Units	OrigDataRate	OrigDataStartFrame	OrigNumFrames
120	120	22	19	mm	120	61	240
Frame#	Time	ThumbCMC			ThumbMCP			ThumbIP			ThumbTip			IndexMCP			IndexPIP			IndexTip			MiddleMCP			MiddlePIP			MiddleTip			RingMCP			RingPIP			RingTip			PinkyMCP			PinkyPIP			PinkyTip			BackHand1			BackHand2			BackHand3	
		X0	Y0	Z0	X1	Y1	Z1	X2	Y2	Z2	X3	Y3	Z3	X4	Y4	Z4	X5	Y5	Z5	X6	Y6	Z6	X7	Y7	Z7	X8	Y8	Z8	X9	Y9	Z9	X10	Y10	Z10	X11	Y11	Z11	X12	Y12	Z12	X13	Y13	Z13	X14	Y14	Z14	X15	Y15	Z15	X16	Y16	Z16	X17	Y17	Z17	X18	Y18	Z18	
60	0.5	-138.47	38.147	45.1841	-119.88	22.4435	15.4731	-117.96	11.3866	-16.8037	-135.822	-2.50129	-31.7055	-143.045	50.0207	-36.9356	-131.353	19.2337	-43.4183	-137.701	19.9063	-5.10415	-160.402	32.536	-45.8117	-146.665	3.01802	-39.4937	-149.977	10.3588	2.69793	-182.342	18.5459	-45.0537	-163.665	-8.58447	-36.2039	-163.063	-2.10198	-4.84907	-213.551	17.6079	-30.5467	-219.545	11.9311	-50.7129	-226.793	15.2299	-71.909	-204.645	42.7261	9.6849	-209.555	38.1762	47.859	-179.488	55.3078	32.1735	
61	0.508333	-141.29	45.0463	39.7417	-119.79	30.2252	10.8982	-117.146	19.0644	-17.2166	-135.012	-0.627572	-37.6774	-150.856	49.5663	-40.5959	-135.002	19.7768	-39.2657	-139.131	27.8962	-4.22788	-164.971	30.5712	-48.0224	-146.691	4.58116	-36.291	-151.811	13.9959	1.22273	-186.983	14.4222	-44.7845	-160.792	-6.47828	-37.2657	-165.122	-1.08721	-3.25294	-218.872	9.14636	-32.1165	-221.61	5.87363	-52.6029	-226.15	7.5058	-74.2613	-210.24	37.1264	7.72044	-212.061	34.2568	43.1401	-182.355	60.1171	32.4217	
62	0.516667	-144.931	49.6459	38.3101	-123.121	38.5424	5.5636	-120.335	27.7719	-17.8731	-136.43	6.47625	-37.9635	-151.757	49.3929	-43.7436	-135.867	23.0177	-38.9253	-147.945	33.7478	-3.93674	-169.481	31.7379	-48.1837	-144.114	9.00602	-36.6148	-153.791	14.5135	0.194149	-185.898	12.1649	-46.3932	-158.762	-4.13958	-39.1812	-162.951	2.3665	-3.24996	-217.734	5.46307	-30.9156	-221.628	-0.456647	-51.2957	-229.908	-0.607357	-74.5039	-211.962	35.9758	12.7017	-211.407	32.7347	44.2263	-187.541	58.136	29.2037	
63	0.525	-148.959	53.7658	35.351	-125.304	46.0934	5.61465	-122.421	35.7525	-20.8765	-135.581	12.2869	-37.882	-155.599	51.8208	-44.1176	-137.325	26.1484	-36.9583	-148.418	38.0198	-4.79223	-171.425	30.045	-50.1224	-145.684	11.8015	-40.3345	-151.236	20.511	-1.4142	-187.653	13.9572	-45.1038	-157.119	-2.24276	-38.1559	-160.814	2.44843	-5.36722	-215.481	4.27179	-29.18	-219.844	-5.59487	-49.4397	-225.639	-4.1586	-74.9322	-212.047	33.9923	10.6831	-216.946	28.111	45.5338	-191.774	60.3021	26.1	
64	0.533333	-154.142	57.2158	32.3905	-126.549	51.2582	6.44323	-122.286	41.3302	-26.8696	-133.858	16.3988	-37.8674	-158.589	51.2719	-47.1454	-137.668	29.1143	-36.8956	-146.714	39.7387	-7.29851	-172.47	32.3491	-51.0957	-144.902	12.9817	-38.3167	-152.761	21.7898	-0.992396	-186.553	9.21303	-47.2436	-156.192	-2.65695	-38.8881	-158.154	6.65558	-5.15401	-212.897	0.307773	-30.6483	-217.141	-8.99351	-50.1579	-224.816	-14.0789	-70.4892	-214.559	29.6356	10.3124	-213.959	26.7505	44.4298	-193.163	57.9462	25.8343	
65	0.541667	-156.274	61.0068	31.3943	-131.571	56.3148	-0.121657	-124.271	45.6399	-22.0869	-132.388	20.0009	-40.021	-164.879	55.6192	-45.4615	-140.421	32.2207	-38.9585	-151.465	43.1567	-5.83668	-174.203	31.7083	-51.3225	-146.1	13.7097	-39.5071	-151.864	19.7745	-3.52758	-182.919	11.3174	-46.0816	-153.085	0.201604	-36.4119	-156.858	6.54044	-4.27058	-210.494	-4.93239	-31.9802	-213.211	-16.5403	-47.5915	-219.374	-15.3524	-71.9873	-213.688	25.8427	12.8285	-217.078	24.0136	42.9431	-199.477	55.6674	26.5473	
66	0.55	-157.788	65.1362	30.3161	-132.173	62.3233	1.77321	-126.551	50.4248	-26.0083	-130.892	21.8446	-42.8628	-168.273	56.8578	-45.5991	-140.744	36.5992	-42.0387	-150.95	45.4499	-7.95649	-176.569	28.6587	-51.7004	-145.111	19.5318	-45.1641	-151.863	25.305	-3.1277	-183.009	8.14586	-45.2678	-151.984	-1.66083	-37.2943	-152.196	8.51215	-6.71109	-208.344	-9.1722	-25.4819	-207.839	-17.197	-45.8545	-214.582	-25.8917	-67.0542	-214.25	24.4229	13.8318	-213.646	21.5909	44.1212	-201.565	55.8059	27.0535	
67	0.558333	-160.949	68.6225	28.8092	-135.269	64.3232	0.928682	-127.155	54.5107	-28.4672	-134.047	23.7711	-40.4811	-171.944	52.9534	-46.8769	-142.796	39.1945	-43.521	-150.615	46.8232	-9.16864	-177.974	27.0916	-49.7273	-144.848	19.1403	-41.7933	-150.663	25.1218	-4.47375	-182.375	6.44745	-44.5266	-149.003	2.22074	-35.6132	-151.943	12.133	-5.26201	-203.882	-14.5182	-28.8605	-203.601	-23.566	-47.1656	-207.961	-28.4916	-70.9343	-214.782	20.2143	13.5003	-211.445	20.6073	43.6894	-202.897	53.679	25.5454	
68	0.566667	-163.045	69.9833	28.8416	-136.464	67.6941	-0.506782	-130.527	56.4931	-25.213	-130.012	26.5563	-41.8591	-170.942	53.8705	-49.2631	-141.724	40.8411	-40.6205	-155.082	46.1229	-9.53684	-177.772	26.682	-51.3998	-145.39	20.0926	-43.6088	-149.218	29.9038	-5.9211	-181.657	7.88913	-44.2074	-147.479	4.20215	-37.9852	-148.226	10.1274	-6.32091	-200.184	-17.6223	-26.7437	-198.764	-23.0926	-47.138	-202.624	-27.0545	-69.1903	-212.739	18.1655	9.63398	-213.145	16.9006	44.8349	-204.127	50.4094	23.4394	
69	0.575	-167.213	68.2288	29.4212	-141.31	68.7026	-2.74209	-131.975	59.3954	-28.4937	-128.821	30.1079	-42.116	-171.475	57.5511	-49.7973	-143.471	43.8622	-41.0789	-156.539	48.6868	-10.3251	-174.55	25.8805	-52.2043	-143.997	21.9659	-43.048	-151.54	32.4221	-3.62487	-178.628	4.01312	-43.8381	-146.034	3.39678	-39.1546	-146.255	15.3634	-7.09148	-196.985	-18.3686	-27.9315	-194.607	-23.1106	-46.5627	-198.411	-30.2802	-65.5224	-212.816	14.8155	13.6521	-210.407	14.9586	48.5596	-205.442	49.6426	24.3783	
70	0.583333	-168.855	72.5205	28.0777	-145.448	69.5632	-0.746205	-133.51	61.7833	-28.4579	-130.67	32.4747	-42.525	-174	57.3964	-50.8036	-144.241	48.5536	-47.219	-158.533	51.1595	-9.42445	-176.077	30.0812	-50.8245	-143.543	25.3411	-42.6546	-149.685	36.9998	-5.8249	-177.668	3.90884	-43.8753	-142.553	10.1455	-36.2525	-147.555	18.3488	-2.69635	-193.012	-19.9069	-28.7502	-190.037	-27.4272	-43.1087	-193.052	-30.5703	-70.1063	-211.56	11.8921	10.7455	-208.267	18.5209	46.5577	-206.459	49.032	24.537	
71	0.591667	-172.171	72.9779	24.1724	-144.733	74.5468	-0.160764	-136.632	62.495	-27.7986	-129.152	34.2935	-42.838	-175.719	52.1312	-50.6094	-145.402	48.4452	-42.977	-160.045	53.6272	-10.0154	-176.34	28.945	-51.4415	-142.468	31.1559	-42.5239	-152.395	38.9426	-2.61353	-172.621	7.20837	-45.1659	-142.756	10.2964	-39.2392	-146.239	20.4448	-2.22094	-189.597	-18.0454	-24.4476	-185.768	-25.254	-45.8057	-190.735	-31.6921	-70.1237	-209.561	11.1217	8.87437	-208.867	14.9895	44.8614	-208	50.7774	21.9437	
72	0.6	-172.555	74.8318	28.3343	-146.768	75.5838	-1.37826	-135.356	67.0977	-29.2299	-131.544	36.8031	-41.2711	-176.176	53.6276	-51.5048	-145.734	48.2966	-44.6042	-157.062	55.5289	-11.7962	-172.555	27.1713	-52.0559	-140.893	29.5558	-38.0751	-151.641	36.9948	-3.01832	-171.136	6.33426	-44.56	-139.065	14.6408	-36.0767	-145.249	24.9769	-2.50724	-187.428	-14.6364	-26.9861	-182.595	-25.2782	-44.8126	-186.245	-35.0714	-67.233	-209.529	9.25871	11.5386	-208.45	15.7471	47.4579	-208.519	47.0865	23.731	
73	0.608333	-174.829	73.1033	28.5764	-150.917	73.2976	-3.55631	-138.012	63.9341	-31.4566	-128.255	38.272	-42.3718	-177.771	56.1292	-50.0166	-144.866	53.2921	-44.4415	-161.064	54.9743	-10.1506	-173.714	30.6823	-50.7796	-141.504	31.1128	-41.2212	-153.364	38.2085	-0.798798	-172.639	8.63707	-44.2907	-138.926	17.2856	-34.9623	-145.323	24.2357	-1.82908	-184.874	-16.89	-30.8269	-179.108	-27.2765	-45.9181	-180.899	-30.9368	-71.4881	-208.176	12.1586	8.15248	-207.933	10.1992	42.4741	-209.189	45.6493	21.1884	
74	0.616667	-176.903	71.918	26.6892	-149.651	78.0804	-3.81609	-138.594	65.6368	-31.8565	-127.956	40.6146	-43.9327	-177.595	55.893	-50.4071	-146.448	51.7683	-44.3747	-159.484	59.0903	-11.3382	-171.867	31.1989	-52.5433	-141.362	33.3312	-39.8957	-150.159	42.4341	-3.2882	-173.464	10.6035	-44.1571	-137.061	16.1993	-34.9978	-141.874	24.1718	-6.67613	-183.729	-18.0617	-28.4226	-178.56	-22.4591	-44.3166	-178.567	-29.1694	-69.7328	-205.797	8.60342	11.6083	-209.104	15.6392	44.66	-209.732	47.5816	22.0503	
75	0.625	-177.001	75.9853	25.2007	-150.972	77.2926	-4.14667	-139.355	70.5747	-29.8067	-128.834	42.7023	-43.3085	-178.878	54.4934	-51.7253	-146.934	52.1518	-42.3303	-159.864	60.6367	-11.9122	-173.797	32.0547	-52.194	-140.994	33.9405	-40.4409	-153.511	41.9485	-1.48064	-170.283	7.97852	-44.6219	-138.773	19.3524	-38.3737	-143.825	25.6797	-2.07504	-183.301	-14.5979	-27.271	-177.599	-24.979	-44.4023	-178.29	-28.5296	-70.523	-207.107	13.0591	6.06612	-207.698	16.0208	45.8715	-210.831	45.6884	24.4994	
76	0.633333	-177.923	75.9485	23.0814	-151.636	79.3688	-3.58855	-142.197	67.446	-29.9172	-129.86	42.7183	-44.9554	-180.268	59.8784	-49.9495	-146.402	56.2149	-44.4437	-160.992	57.0242	-12.1509	-172.625	31.1368	-53.0765	-140.806	33.4362	-40.1763	-150.596	42.8673	-3.95185	-172.348	10.8604	-45.1372	-137.377	16.3496	-35.7097	-142.09	24.0417	-5.44497	-182.991	-18.2967	-28.6755	-177.722	-25.0085	-44.3908	-178.266	-32.304	-71.8688	-206	11.2139	10.9255	-208.573	10.2489	42.2757	-212.225	44.3325	20.279	
77	0.641667	-180.328	72.4853	25.9704	-155.598	77.7491	-4.0904	-141.931	71.4241	-30.4025	-131.738	45.9584	-43.5335	-181.247	56.3442	-50.8293	-147.801	55.02	-44.1459	-163.897	57.475	-10.6849	-175.262	32.6467	-52.7475	-143.167	36.7135	-42.9186	-152.57	40.4	-4.36684	-170.423	9.6634	-45.2892	-138.446	17.3023	-34.6463	-144.785	25.8648	-2.80819	-183.621	-16.3318	-30.9608	-177.534	-23.9042	-47.962	-176.997	-27.8089	-69.1457	-209.224	8.46283	8.85127	-207.366	10.8984	43.9762	-213.226	42.9565	20.57	
78	0.65	-180.922	75.4819	26.1884	-156.927	77.4496	-5.99559	-144.242	70.1213	-29.5083	-135.404	44.4387	-41.4803	-180.268	56.0256	-51.6056	-149.522	56.0032	-46.7856	-161.893	57.7739	-13.1882	-177.365	27.3881	-50.9384	-142.253	37.0794	-39.0136	-153.306	43.7957	-4.40988	-173.735	8.68175	-44.5817	-138.658	16.1642	-36.3904	-142.979	25.3746	-6.72851	-183.165	-15.4925	-27.1629	-176.805	-23.9077	-49.8498	-178.253	-29.8738	-70.0609	-206.67	10.2574	10.7539	-207.169	10.7475	42.1409	-211.909	45.0108	21.5735	
79	0.658333	-182.024	73.0603	24.1227	-157.074	79.1128	-5.01076	-143.488	73.2941	-31.7891	-133.591	45.0225	-44.3044	-182.957	54.6189	-51.0467	-150.29	54.4128	-43.1098	-161.819	59.0605	-13.1577	-175.909	28.4576	-52.1107	-144.57	37.8127	-43.5936	-153.415	40.8881	-5.38045	-170.168	10.5926	-48.2959	-139.925	17.2543	-37.4407	-143.962	27.8532	-7.31819	-183.152	-15.8907	-30.0438	-177.628	-23.4446	-46.2171	-178.147	-28.2429	-68.9201	-206.339	7.42387	10.3772	-209.894	11.209	41.0089	-214.604	43.361	20.6933	
80	0.666667	-182.647	71.2186	24.5026	-156.252	81.3809	-2.28503	-146.395	70.5688	-30.0694	-134.567	46.5599	-41.7441	-180.992	55.8252	-53.7759	-150.736	54.5616	-42.883	-165.586	61.8642	-12.4598	-176.453	29.5014	-52.2001	-143.409	36.4984	-40.8486	-153.969	42.6586	-5.58246	-173.67	11.7893	-45.9715	-142.669	20.5798	-40.6641	-146.683	29.976	-5.7357	-182.859	-18.7122	-32.5181	-178.751	-18.4136	-48.2655	-179.854	-27.2867	-70.1505	-209.784	5.27662	5.06892	-208.899	12.8077	41.6837	-214.389	43.6715	21.8714	
81	0.675	-181.418	75.4333	26.6799	-155.99	79.6371	-3.20114	-145.301	72.0827	-29.9967	-134.374	45.9632	-42.0204	-182.718	57.7445	-50.6215	-151.871	53.3916	-45.112	-167.266	57.8722	-11.5443	-177.064	34.3395	-52.1954	-144.461	40.2219	-41.7142	-154.545	38.9422	-2.87905	-174.186	10.478	-45.1913	-142.17	16.9622	-39.4417	-146.525	28.9011	-3.79986	-185.947	-11.8604	-34.8993	-181.996	-16.5019	-51.2889	-181.915	-25.5025	-73.5998	-209.998	6.51538	7.73422	-209.438	8.27666	41.0417	-213.819	43.893	21.3751	
